<svg width="50" height="50" viewBox="0 0 50 50" fill="none" xmlns="http://www.w3.org/2000/svg">
<path fill-rule="evenodd" clip-rule="evenodd" d="M24.6148 0.505066C11.286 0.505066 0.49025 11.628 0.49025 25.3606C0.49025 36.3592 7.39591 45.6491 16.9854 48.9424C18.1916 49.1598 18.644 48.4142 18.644 47.7618C18.644 47.1715 18.6138 45.2141 18.6138 43.1324C12.5525 44.282 10.9844 41.61 10.5019 40.212C10.2305 39.4973 9.05446 37.2914 8.02917 36.7011C7.18482 36.235 5.97858 35.0855 7.99902 35.0544C9.89883 35.0233 11.2558 36.8564 11.7082 37.6021C13.8794 41.3615 17.3473 40.3051 18.7344 39.6526C18.9456 38.037 19.5788 36.9495 20.2723 36.3282C14.9047 35.7068 9.29571 33.563 9.29571 24.0558C9.29571 21.3527 10.2305 19.1158 11.7685 17.3758C11.5272 16.7544 10.6829 14.2067 12.0097 10.7891C12.0097 10.7891 14.0302 10.1366 18.644 13.3368C20.574 12.7775 22.6246 12.4979 24.6751 12.4979C26.7257 12.4979 28.7763 12.7775 30.7063 13.3368C35.3201 10.1055 37.3406 10.7891 37.3406 10.7891C38.6673 14.2067 37.8229 16.7544 37.5818 17.3758C39.1197 19.1158 40.0546 21.3217 40.0546 24.0558C40.0546 33.5941 34.4154 35.7068 29.0476 36.3282C29.9222 37.105 30.6762 38.5962 30.6762 40.9265C30.6762 44.2509 30.646 46.9229 30.646 47.7618C30.646 48.4142 31.0982 49.1911 32.3046 48.9424C41.8337 45.6491 48.7394 36.3282 48.7394 25.3606C48.7394 11.628 37.9437 0.505066 24.6148 0.505066Z" fill="white" fill-opacity="0.5"/>
</svg>
