<svg width="100" height="100" viewBox="0 0 100 100" fill="none" xmlns="http://www.w3.org/2000/svg">
<path d="M12.8364 12.836H87.2032V87.1646H12.8364V12.836Z" fill="#F0DB4F"/>
<path d="M81.117 69.437C80.5723 66.0461 78.36 63.1979 71.8069 60.542C69.5305 59.4965 66.9927 58.7477 66.2364 57.0235C65.9679 56.02 65.9323 55.4548 66.1022 54.8474C66.5899 52.8761 68.9441 52.2616 70.8101 52.8269C72.0119 53.2294 73.1495 54.1551 73.8356 55.6317C77.0447 53.5548 77.0382 53.5685 79.279 52.1411C78.4586 50.8699 78.0208 50.2832 77.4838 49.7394C75.5537 47.5846 72.9238 46.4749 68.7178 46.5598L66.5269 46.843C64.4275 47.3733 62.4267 48.4747 61.2535 49.9513C57.7331 53.9437 58.737 60.931 63.0208 63.8065C67.241 66.9724 73.4406 67.6926 74.2325 70.653C75.003 74.2773 71.5675 75.4505 68.1529 75.0337C65.6364 74.5106 64.2368 73.2323 62.7238 70.9077C59.9388 72.5186 59.9388 72.5186 57.0754 74.1645C57.7544 75.6482 58.4679 76.3198 59.6061 77.6052C64.9931 83.0665 78.4735 82.7982 80.8913 74.532C80.9893 74.2482 81.6404 72.3553 81.117 69.437ZM53.2645 46.9974H46.3087L46.2802 64.9714C46.2802 68.794 46.478 72.2983 45.856 73.3724C44.8384 75.485 42.2014 75.2231 40.9996 74.8134C39.7764 74.2125 39.1544 73.3581 38.4339 72.1505C38.236 71.8037 38.0875 71.5353 38.0376 71.5145L32.3822 74.9761C33.3226 76.9052 34.7079 78.5796 36.4824 79.6673C39.1331 81.2574 42.6956 81.7449 46.4216 80.8899C48.8465 80.1839 50.9388 78.7215 52.0343 76.4955C53.618 73.5772 53.2782 70.045 53.264 66.1381C53.2996 59.7642 53.2645 53.3915 53.2645 46.9974Z" fill="#323330"/>
</svg>
