<svg width="50" height="50" viewBox="0 0 50 50" fill="none" xmlns="http://www.w3.org/2000/svg">
<path d="M25 0C11.1937 0 0 11.1937 0 25C0 38.8062 11.1937 50 25 50C38.8062 50 50 38.8062 50 25C50 11.1937 38.8062 0 25 0ZM15.6167 11.2562C17.3708 11.2562 18.5396 12.425 18.5396 13.9833C18.5396 15.5417 17.3708 16.7104 15.4229 16.7104C13.6687 16.7125 12.5 15.5417 12.5 13.9833C12.5 12.425 13.6688 11.2562 15.6167 11.2562ZM18.75 35.4167H12.5V18.75H18.75V35.4167ZM39.5833 35.4167H33.7V26.3083C33.7 23.7896 32.1313 23.2083 31.5438 23.2083C30.9563 23.2083 28.9937 23.5958 28.9937 26.3083C28.9937 26.6958 28.9937 35.4167 28.9937 35.4167H22.9167V18.75H28.9958V21.075C29.7792 19.7187 31.3479 18.75 34.2896 18.75C37.2312 18.75 39.5833 21.075 39.5833 26.3083V35.4167Z" fill="white" fill-opacity="0.5"/>
</svg>
