<svg width="100" height="100" viewBox="0 0 100 100" fill="none" xmlns="http://www.w3.org/2000/svg">
<path d="M50.5 56.8922C54.5826 56.8922 57.8922 53.5826 57.8922 49.5C57.8922 45.4174 54.5826 42.1078 50.5 42.1078C46.4174 42.1078 43.1078 45.4174 43.1078 49.5C43.1078 53.5826 46.4174 56.8922 50.5 56.8922Z" fill="#61DAFB"/>
<path d="M78.5773 37.3093C77.1508 36.7906 75.6594 36.2719 74.1031 35.8179C74.4922 34.2617 74.8164 32.7054 75.0758 31.214C76.4375 22.6547 74.9461 16.6242 70.7961 14.2898C69.5641 13.5765 68.2023 13.2523 66.6461 13.2523C62.107 13.2523 56.3359 16.6242 50.5 22.2656C44.6641 16.6242 38.893 13.2523 34.3539 13.2523C32.7976 13.2523 31.4359 13.5765 30.2039 14.2898C26.0539 16.689 24.5625 22.7195 25.9242 31.214C26.1836 32.7054 26.5078 34.2617 26.8969 35.8179C25.3406 36.2719 23.8492 36.7258 22.4227 37.3093C14.3172 40.4218 9.90781 44.7015 9.90781 49.5C9.90781 54.2984 14.382 58.5781 22.4227 61.6906C23.8492 62.2094 25.3406 62.7281 26.8969 63.182C26.5078 64.7383 26.1836 66.2945 25.9242 67.7859C24.5625 76.3453 26.0539 82.3758 30.2039 84.7101C31.4359 85.4234 32.7976 85.7476 34.3539 85.7476C38.9578 85.7476 44.7289 82.3757 50.5 76.7343C56.3359 82.3757 62.107 85.7476 66.6461 85.7476C68.2023 85.7476 69.5641 85.4234 70.7961 84.7101C74.9461 82.3109 76.4375 76.2804 75.0758 67.7859C74.8164 66.2945 74.4922 64.7383 74.1031 63.182C75.6594 62.7281 77.1508 62.2742 78.5773 61.6906C86.6828 58.5781 91.0922 54.2984 91.0922 49.5C91.0922 44.7015 86.6828 40.4218 78.5773 37.3093ZM68.9805 17.532C71.6391 19.0883 72.5469 23.8867 71.4445 30.6953C71.25 32.057 70.9258 33.4836 70.5367 34.975C67.1648 34.1968 63.5984 33.6781 59.8375 33.3539C57.6328 30.2414 55.3633 27.4531 53.0937 24.9242C57.8922 20.1906 62.7555 16.9484 66.7109 16.9484C67.5539 16.9484 68.332 17.1429 68.9805 17.532ZM61.718 55.9843C60.5508 58.0593 59.1891 60.1343 57.7625 62.2093C55.3633 62.4039 52.9641 62.4687 50.5 62.4687C47.9711 62.4687 45.5719 62.4039 43.2375 62.2093C41.8109 60.1343 40.5141 58.0593 39.3469 55.9843C38.1148 53.8445 36.9477 51.6398 35.9102 49.5C36.9477 47.3601 38.1148 45.1554 39.3469 43.0156C40.5141 40.9406 41.8758 38.8656 43.3023 36.7906C45.7016 36.5961 48.1008 36.5312 50.5648 36.5312C53.0937 36.5312 55.493 36.5961 57.8273 36.7906C59.2539 38.8656 60.5508 40.9406 61.718 43.0156C62.95 45.1554 64.1172 47.3601 65.1547 49.5C64.0523 51.6398 62.95 53.7797 61.718 55.9843ZM67.1 53.8445C68.0727 56.114 68.8508 58.3187 69.5641 60.5234C67.3594 61.0422 65.025 61.4312 62.5609 61.7554C63.3391 60.5234 64.182 59.2265 64.8953 57.8648C65.6734 56.5031 66.3867 55.1414 67.1 53.8445ZM50.5 71.4172C48.9437 69.7312 47.4523 67.9156 46.0258 66.0351C47.5172 66.1 49.0086 66.1648 50.5 66.1648C51.9914 66.1648 53.4828 66.1 54.9742 66.0351C53.5477 67.9156 52.0562 69.7312 50.5 71.4172ZM38.4391 61.6906C35.975 61.3664 33.6406 60.9773 31.4359 60.4586C32.1492 58.3187 32.9273 56.0492 33.9 53.7797C34.6133 55.0765 35.3266 56.4383 36.1047 57.7351C36.8828 59.1617 37.6609 60.3937 38.4391 61.6906ZM33.9 45.1554C32.9273 42.8859 32.1492 40.6812 31.4359 38.4765C33.6406 37.9578 35.975 37.5687 38.4391 37.2445C37.6609 38.4765 36.818 39.7734 36.1047 41.1351C35.3266 42.4968 34.6133 43.8586 33.9 45.1554ZM50.5 27.5828C52.0562 29.2687 53.5477 31.0843 54.9742 32.9648C53.4828 32.9 51.9914 32.8351 50.5 32.8351C49.0086 32.8351 47.5172 32.9 46.0258 32.9648C47.4523 31.0843 48.9437 29.2687 50.5 27.5828ZM64.8953 41.2L62.5609 37.3093C65.025 37.6336 67.3594 38.0226 69.5641 38.5414C68.8508 40.6812 68.0727 42.9508 67.1 45.2203C66.3867 43.8586 65.6734 42.4968 64.8953 41.2ZM29.5555 30.6953C28.4531 23.8867 29.3609 19.0883 32.0195 17.532C32.668 17.1429 33.4461 16.9484 34.2891 16.9484C38.1797 16.9484 43.043 20.1258 47.9062 24.9242C45.6367 27.3883 43.3672 30.2414 41.1625 33.3539C37.4016 33.6781 33.8352 34.2617 30.4633 34.975C30.0742 33.4836 29.8148 32.057 29.5555 30.6953ZM13.5391 49.5C13.5391 46.4523 17.2352 43.2101 23.7195 40.8109C25.0164 40.2922 26.443 39.8383 27.8695 39.4492C28.907 42.6914 30.2039 46.1281 31.7602 49.5648C30.2039 53.0015 28.8422 56.3734 27.8695 59.6156C18.9211 57.0218 13.5391 53.1312 13.5391 49.5ZM32.0195 81.4679C29.3609 79.9117 28.4531 75.1133 29.5555 68.3047C29.75 66.9429 30.0742 65.5164 30.4633 64.025C33.8352 64.8031 37.4016 65.3218 41.1625 65.6461C43.3672 68.7586 45.6367 71.5468 47.9062 74.0758C43.1078 78.8093 38.2445 82.0515 34.2891 82.0515C33.4461 82.0515 32.668 81.857 32.0195 81.4679ZM71.4445 68.3047C72.5469 75.1133 71.6391 79.9117 68.9805 81.4679C68.332 81.857 67.5539 82.0515 66.7109 82.0515C62.8203 82.0515 57.957 78.8742 53.0937 74.0758C55.3633 71.6117 57.6328 68.7586 59.8375 65.6461C63.5984 65.3218 67.1648 64.7383 70.5367 64.025C70.9258 65.5164 71.1852 66.9429 71.4445 68.3047ZM77.2805 58.189C75.9836 58.7078 74.557 59.1617 73.1305 59.5508C72.093 56.3086 70.7961 52.8718 69.2398 49.4351C70.7961 45.9984 72.1578 42.6265 73.1305 39.3843C82.0789 41.9781 87.4609 45.8687 87.4609 49.5C87.4609 52.5476 83.7 55.7898 77.2805 58.189Z" fill="#61DAFB"/>
</svg>
